<?xml version="1.0" encoding="UTF-8"?>
<svg width="96" height="96" viewBox="0 0 96 96" fill="none" xmlns="http://www.w3.org/2000/svg">
  <rect x="10" y="12" width="76" height="52" rx="10" fill="#0F1720" stroke="#4CC3F1" stroke-width="2"/>
  <rect x="18" y="20" width="60" height="36" rx="6" fill="#0B1018" stroke="#6AD3F9" stroke-width="1.5"/>
  <path d="M26 34C30 32 34 30 38 30C42 30 46 32 50 32C54 32 58 30 62 30C66 30 70 32 74 34" stroke="#6AD3F9" stroke-width="2" stroke-linecap="round" stroke-linejoin="round"/>
  <path d="M26 42C30 40 34 38 38 38C42 38 46 40 50 40C54 40 58 38 62 38C66 38 70 40 74 42" stroke="#3ECF8E" stroke-width="2" stroke-linecap="round" stroke-linejoin="round"/>
  <path d="M26 26H30" stroke="#6AD3F9" stroke-width="2" stroke-linecap="round"/>
  <path d="M66 26H70" stroke="#6AD3F9" stroke-width="2" stroke-linecap="round"/>
  <circle cx="48" cy="64" r="10" fill="#0F1720" stroke="#3ECF8E" stroke-width="2"/>
  <path d="M48 58V64L52 68" stroke="#3ECF8E" stroke-width="2" stroke-linecap="round" stroke-linejoin="round"/>
</svg>
