<?xml version="1.0" encoding="UTF-8"?>
<svg version="1.1" xmlns="http://www.w3.org/2000/svg" width="512" height="512">
<path d="M0 0 C3.48368843 -0.00217157 6.96705145 -0.02034977 10.45068359 -0.03930664 C31.07333249 -0.09155736 51.58476928 1.1390639 72.02490234 3.93530273 C73.26191895 4.10376709 74.49893555 4.27223145 75.7734375 4.44580078 C114.22756672 9.92704015 165.32641722 19.55837213 191.71630859 51.20092773 C196.09509134 57.26202211 198.27259226 63.04528089 198.28412342 70.52358341 C198.28647565 71.17238448 198.28882788 71.82118554 198.29125139 72.48964724 C198.29794498 74.67874814 198.29748306 76.86778974 198.29707336 79.05690002 C198.30037178 80.63628653 198.3040973 82.21567218 198.30821484 83.79505676 C198.31824574 88.14717819 198.32195339 92.49928583 198.32460415 96.85141718 C198.32850404 101.54076705 198.33808266 106.23010597 198.34681702 110.91944885 C198.36659142 122.25093544 198.37664934 133.58242293 198.38554481 144.91392246 C198.38992652 150.24876219 198.39529367 155.58360092 198.40053368 160.91843987 C198.4175477 178.65086568 198.4320418 196.38329088 198.43928242 214.11572361 C198.44119235 218.71875064 198.44311267 223.32177767 198.44506836 227.92480469 C198.4455521 229.06888115 198.44603584 230.21295761 198.44653424 231.39170306 C198.45483423 249.92431895 198.48016985 268.45687028 198.51264904 286.98945797 C198.54571571 306.01223129 198.56373087 325.0349718 198.56692666 344.05777401 C198.56909223 354.74004456 198.57784764 365.42222101 198.60338783 376.10446358 C198.62508953 385.20234985 198.63314788 394.30011916 198.62342105 403.39802838 C198.61887469 408.03926523 198.62078209 412.68026075 198.6401825 417.32146454 C198.65780313 421.57366091 198.65682543 425.82543967 198.6412852 430.07764041 C198.63890744 431.61271684 198.64324145 433.14782211 198.65511385 434.68285448 C198.74972792 447.72809232 196.66896459 456.35222445 187.48193359 465.88061523 C186.71236328 466.64116211 185.94279297 467.40170898 185.14990234 468.18530273 C184.25851562 469.10956055 184.25851562 469.10956055 183.34912109 470.05249023 C157.2748044 495.14396128 111.26423692 502.8160699 77.08740234 507.93530273 C76.42502563 508.03635315 75.76264893 508.13740356 75.0802002 508.24151611 C51.85345276 511.73931158 28.61128148 512.56431202 5.14990234 512.49780273 C3.79708874 512.49587795 2.44427501 512.49403757 1.09146118 512.49227905 C-19.04492077 512.45425712 -38.87574842 511.92536001 -58.85009766 509.18530273 C-60.17814516 509.01137013 -61.50627261 508.83804708 -62.83447266 508.6652832 C-102.91686404 503.3834505 -156.55611421 494.47684679 -183.85009766 461.18530273 C-188.06751489 454.41600718 -189.9719825 448.7111012 -189.98431873 440.75520897 C-189.98667096 440.10863081 -189.98902319 439.46205265 -189.9914467 438.79588121 C-189.99812546 436.62036353 -189.99767882 434.44490573 -189.99726868 432.26937866 C-190.000568 430.6973787 -190.00429371 429.12537959 -190.00841016 427.55338156 C-190.01843046 423.22632262 -190.022147 418.89927755 -190.02479947 414.57220864 C-190.02870241 409.9080981 -190.03828075 405.24399855 -190.04701233 400.57989502 C-190.06677679 389.31260125 -190.07684284 378.04530659 -190.08574012 366.77799982 C-190.09012297 361.47255007 -190.09548978 356.16710133 -190.10072899 350.86165237 C-190.11774109 333.22612147 -190.13223548 315.59059118 -190.13947773 297.95505333 C-190.14138764 293.37832005 -190.14330797 288.80158678 -190.14526367 284.22485352 C-190.14574741 283.08732378 -190.14623115 281.94979405 -190.14672955 280.77779372 C-190.15503066 262.34870567 -190.18036903 243.91968251 -190.21284435 225.4906228 C-190.24591109 206.57177896 -190.26392614 187.65296811 -190.26712197 168.73409522 C-190.2692874 158.11108414 -190.27804093 147.4881677 -190.30358315 136.86518478 C-190.32528483 127.8185595 -190.33334315 118.77205184 -190.32361636 109.72540347 C-190.31907017 105.11048761 -190.3209765 100.49581446 -190.34037781 95.88093185 C-190.35799938 91.65283011 -190.35702 87.42514833 -190.34148052 83.19704218 C-190.33910292 81.67074387 -190.34343594 80.14441654 -190.35530917 78.61816256 C-190.46022388 64.23635023 -187.11303605 54.739446 -177.07666016 44.34936523 C-142.87301057 12.4548228 -83.21032564 4.70775506 -38.85009766 1.18530273 C-37.79902832 1.09772705 -36.74795898 1.01015137 -35.66503906 0.91992188 C-23.78289676 0.04602859 -11.91023329 -0.00082653 0 0 Z " fill="#59B3D8" transform="translate(251.85009765625,-0.185302734375)"/>
<path d="M0 0 C3.48368843 -0.00217157 6.96705145 -0.02034977 10.45068359 -0.03930664 C31.07333249 -0.09155736 51.58476928 1.1390639 72.02490234 3.93530273 C73.26191895 4.10376709 74.49893555 4.27223145 75.7734375 4.44580078 C114.22756672 9.92704015 165.32641722 19.55837213 191.71630859 51.20092773 C196.09509134 57.26202211 198.27259226 63.04528089 198.28412342 70.52358341 C198.28647565 71.17238448 198.28882788 71.82118554 198.29125139 72.48964724 C198.29794498 74.67874814 198.29748306 76.86778974 198.29707336 79.05690002 C198.30037178 80.63628653 198.3040973 82.21567218 198.30821484 83.79505676 C198.31824574 88.14717819 198.32195339 92.49928583 198.32460415 96.85141718 C198.32850404 101.54076705 198.33808266 106.23010597 198.34681702 110.91944885 C198.36659142 122.25093544 198.37664934 133.58242293 198.38554481 144.91392246 C198.38992652 150.24876219 198.39529367 155.58360092 198.40053368 160.91843987 C198.4175477 178.65086568 198.4320418 196.38329088 198.43928242 214.11572361 C198.44119235 218.71875064 198.44311267 223.32177767 198.44506836 227.92480469 C198.4455521 229.06888115 198.44603584 230.21295761 198.44653424 231.39170306 C198.45483423 249.92431895 198.48016985 268.45687028 198.51264904 286.98945797 C198.54571571 306.01223129 198.56373087 325.0349718 198.56692666 344.05777401 C198.56909223 354.74004456 198.57784764 365.42222101 198.60338783 376.10446358 C198.62508953 385.20234985 198.63314788 394.30011916 198.62342105 403.39802838 C198.61887469 408.03926523 198.62078209 412.68026075 198.6401825 417.32146454 C198.65780313 421.57366091 198.65682543 425.82543967 198.6412852 430.07764041 C198.63890744 431.61271684 198.64324145 433.14782211 198.65511385 434.68285448 C198.73621689 445.86521251 197.75670568 455.20363217 189.64990234 463.56030273 C188.89708984 464.35178711 188.14427734 465.14327148 187.36865234 465.95874023 C182.89593409 470.4472075 182.89593409 470.4472075 181.14990234 472.18530273 C180.48990234 471.85530273 179.82990234 471.52530273 179.14990234 471.18530273 C179.89755859 470.47245117 180.64521484 469.75959961 181.41552734 469.02514648 C191.24096733 459.53037834 196.07910486 451.80618072 196.42837524 437.75010681 C196.45174852 435.24021557 196.4645341 432.73021137 196.46875 430.22021484 C196.47806445 428.8297366 196.48823534 427.43926388 196.49919128 426.04879761 C196.52633462 422.29946176 196.54159382 418.55016316 196.55461931 414.80075526 C196.57031893 410.87295084 196.59708714 406.9452217 196.62265015 403.01747131 C196.66931757 395.59107117 196.70611968 388.16465668 196.73932302 380.73818547 C196.77762979 372.27859888 196.82701737 363.81908813 196.87730718 355.35956562 C196.98044786 337.96819963 197.06976599 320.57678963 197.14990234 303.18530273 C196.32919754 303.90778702 196.32919754 303.90778702 195.49191284 304.64486694 C194.77302887 305.27615509 194.0541449 305.90744324 193.31347656 306.55786133 C192.60134003 307.18389252 191.88920349 307.80992371 191.15548706 308.45492554 C173.86393184 323.37372333 153.04913509 329.44992434 130.52490234 328.37182617 C108.27403976 326.62432833 88.69220459 313.36947781 74.14990234 297.18530273 C72.72762299 295.22672656 71.43703406 293.23800332 70.14990234 291.18530273 C69.59302734 291.88655273 69.03615234 292.58780273 68.46240234 293.31030273 C53.9490929 311.35387664 38.10786232 322.45170274 15.14990234 327.18530273 C10.85990234 327.51530273 6.56990234 327.84530273 2.14990234 328.18530273 C2.14990234 349.63530273 2.14990234 371.08530273 2.14990234 393.18530273 C1.81990234 393.18530273 1.48990234 393.18530273 1.14990234 393.18530273 C1.14990234 309.69530273 1.14990234 226.20530273 1.14990234 140.18530273 C-3.47009766 140.18530273 -8.09009766 140.18530273 -12.85009766 140.18530273 C-15.42947355 140.09294884 -18.00833391 139.97691831 -20.58447266 139.81811523 C-21.8904541 139.73843506 -23.19643555 139.65875488 -24.54199219 139.57666016 C-25.89474017 139.48858046 -27.24744142 139.39978032 -28.60009766 139.31030273 C-29.30374451 139.2645108 -30.00739136 139.21871887 -30.73236084 139.17153931 C-80.17110756 135.93267097 -144.95765655 129.3449155 -181.01416016 91.41186523 C-186.67338564 84.54854922 -190.41526581 76.60237456 -190.15869141 67.60717773 C-188.76453275 56.66567941 -181.4284779 47.77054083 -173.18212891 40.92749023 C-136.01016552 13.15748074 -83.9051967 4.76293174 -38.85009766 1.18530273 C-37.79902832 1.09772705 -36.74795898 1.01015137 -35.66503906 0.91992188 C-23.78289676 0.04602859 -11.91023329 -0.00082653 0 0 Z " fill="#A0A1A2" transform="translate(251.85009765625,-0.185302734375)"/>
<path d="M0 0 C1.28122365 2.51807591 2.44204798 5.02555131 3.5625 7.625 C14.47519216 29.28931138 40.74813026 39.58420302 62.3046875 46.89453125 C73.69894516 50.58051107 85.3230563 53.37283202 97 56 C97.74942871 56.17225098 98.49885742 56.34450195 99.27099609 56.52197266 C103.81904144 57.54813331 108.38969687 58.32168764 113 59 C114.50191895 59.22550537 114.50191895 59.22550537 116.03417969 59.45556641 C141.00082399 63.1091349 165.72440374 64.35159155 191 66 C191 127.71 191 189.42 191 253 C171.03629001 253 155.22562928 248.09173427 140 235 C139.03835937 234.24589844 138.07671875 233.49179687 137.0859375 232.71484375 C133.73025719 229.92090728 131.20789219 226.68727991 128.625 223.1875 C128.17511719 222.59001953 127.72523438 221.99253906 127.26171875 221.37695312 C126.1681343 219.92271849 125.08314264 218.4620285 124 217 C120.98559376 219.89274859 118.43082815 222.94911493 115.875 226.25 C104.29745031 240.4803434 87.18397417 250.22235384 69 253 C44.78560815 254.73715096 25.03695396 250.9137037 6 235 C5.49467944 234.60875816 4.98935887 234.21751632 4.46872556 233.81441867 C1.23090459 231.03422977 -0.37956979 229.0080862 -0.73828697 224.68533516 C-0.76337076 222.98531508 -0.75553616 221.28461227 -0.7215271 219.58474731 C-0.72665365 218.64448727 -0.7317802 217.70422724 -0.7370621 216.73547447 C-0.74693549 213.58873674 -0.71396205 210.44392376 -0.68115234 207.29736328 C-0.67945972 205.04034979 -0.68041025 202.78333298 -0.68380737 200.52632141 C-0.68552985 194.40054978 -0.65023784 188.27548214 -0.60836363 182.14987421 C-0.5708723 175.74772867 -0.5673325 169.34556724 -0.56021118 162.94332886 C-0.54367745 152.19807436 -0.50619294 141.45312779 -0.45263672 130.70800781 C-0.39753827 119.6419402 -0.35507972 108.57594277 -0.32958984 97.50976562 C-0.3280135 96.82731998 -0.32643716 96.14487433 -0.32481305 95.44174851 C-0.31698266 92.01802045 -0.30940046 88.59429188 -0.30194163 85.17056298 C-0.23977038 56.78019753 -0.13367015 28.39011262 0 0 Z " fill="#3E3E3E" transform="translate(62,74)"/>
<path d="M0 0 C3.34579754 3.23524075 6.25204865 6.54605255 9.0625 10.25 C20.493026 24.28351707 37.32339525 32.8355645 55 36 C59.29 36.33 63.58 36.66 68 37 C68 98.05 68 159.1 68 222 C36.52325487 222 36.52325487 222 24.8125 220.8125 C24.14086823 220.74720093 23.46923645 220.68190186 22.7772522 220.61462402 C-23.29565715 216.11618567 -81.25717617 208.62615866 -114.90234375 173.55859375 C-120.46773438 166.77026812 -123.12783635 159.75613497 -123.12025452 151.05218506 C-123.12162918 149.83504822 -123.12300385 148.61791138 -123.12442017 147.3638916 C-123.12088129 146.0183103 -123.11724648 144.67272925 -123.11352539 143.32714844 C-123.11324327 141.90785728 -123.11340175 140.48856598 -123.1139679 139.0692749 C-123.11425489 135.21838213 -123.10837399 131.36752048 -123.10139394 127.51663494 C-123.09514409 123.4914179 -123.09455531 119.46620015 -123.09336853 115.440979 C-123.09026003 107.81958917 -123.08205312 100.19821367 -123.07201904 92.57683015 C-123.06084297 83.89975814 -123.05534368 75.22268545 -123.05032361 66.54560804 C-123.03987012 48.6970639 -123.02227997 30.8485331 -123 13 C-122.28342979 13.61712608 -122.28342979 13.61712608 -121.55238342 14.24671936 C-120.92416183 14.78671066 -120.29594025 15.32670197 -119.64868164 15.88305664 C-119.02659317 16.41822403 -118.4045047 16.95339142 -117.76356506 17.504776 C-98.63097553 33.72618321 -78.45720164 37.75018624 -54 36 C-39.8466946 34.2530378 -26.71784194 27.14106201 -16 18 C-15.17886719 17.37480469 -14.35773438 16.74960937 -13.51171875 16.10546875 C-10.9106013 13.92506081 -8.95540033 11.67596592 -6.875 9 C-6.21242188 8.154375 -5.54984375 7.30875 -4.8671875 6.4375 C-3.23102122 4.30158419 -1.60793148 2.15722484 0 0 Z " fill="#3998C5" transform="translate(185,290)"/>
<path d="M0 0 C3.88243781 0.0113938 7.76460142 0.00461806 11.64702988 -0.0068779 C28.07885887 -0.04822419 44.3384264 0.14102406 60.66210938 2.26074219 C61.86029297 2.40672852 63.05847656 2.55271484 64.29296875 2.703125 C67.34103092 3.09680998 70.3755974 3.53667476 73.41210938 4.01074219 C75.02146362 4.26126343 75.02146362 4.26126343 76.66333008 4.5168457 C103.11801385 8.82270399 137.16304442 14.86535898 155.66210938 36.26074219 C158.54132916 40.71888895 159.29959463 43.97872154 158.66210938 49.26074219 C155.7560494 58.88948756 147.5358204 64.41411344 139.22460938 69.26074219 C111.98037856 83.59833069 77.91458995 87.563384 47.66210938 90.26074219 C46.71263428 90.35500488 45.76315918 90.44926758 44.78491211 90.54638672 C31.84255286 91.6747933 18.83030016 91.50374906 5.84960938 91.51074219 C4.5565387 91.51174927 3.26346802 91.51275635 1.93121338 91.51379395 C-17.99917094 91.50329793 -37.57871314 90.97466029 -57.33789062 88.26074219 C-58.41393555 88.11620605 -59.48998047 87.97166992 -60.59863281 87.82275391 C-85.31896304 84.38323801 -112.90057648 79.78328638 -134.33789062 66.26074219 C-135.07523438 65.80054687 -135.81257813 65.34035156 -136.57226562 64.86621094 C-142.79454829 60.62055566 -147.96030737 54.77066672 -149.46289062 47.19824219 C-149.25930724 40.78536556 -146.686159 36.48780146 -142.46289062 31.76074219 C-123.18342374 13.82635439 -92.17699709 8.43783952 -67.21289062 4.51074219 C-65.9526709 4.31206543 -64.69245117 4.11338867 -63.39404297 3.90869141 C-59.38033934 3.30902528 -55.36393439 2.76919593 -51.33789062 2.26074219 C-50.61911743 2.16611694 -49.90034424 2.0714917 -49.15979004 1.97399902 C-32.81656392 -0.113404 -16.44427418 -0.04863688 0 0 Z " fill="#B7D432" transform="translate(251.337890625,19.7392578125)"/>
<path d="M0 0 C3.48368843 -0.00217157 6.96705145 -0.02034977 10.45068359 -0.03930664 C31.07333249 -0.09155736 51.58476928 1.1390639 72.02490234 3.93530273 C73.26191895 4.10376709 74.49893555 4.27223145 75.7734375 4.44580078 C114.22756672 9.92704015 165.32641722 19.55837213 191.71630859 51.20092773 C196.94346171 58.43633313 198.84550085 65.32286248 198.14990234 74.18530273 C196.82510087 81.01139846 193.66333616 85.99986877 189.14990234 91.18530273 C188.56982422 91.88268555 187.98974609 92.58006836 187.39208984 93.29858398 C171.6918983 110.63036406 146.14777673 119.25756897 124.14990234 125.18530273 C122.83577777 125.57222997 121.52200124 125.96034042 120.20849609 126.34936523 C106.67146532 130.2429392 92.86112041 132.41363989 78.96459961 134.57861328 C76.81872512 134.91989316 74.67427776 135.27187814 72.53656006 135.66099548 C64.6962301 137.05952083 56.91597617 137.79982257 48.97021484 138.29077148 C48.3086652 138.33252188 47.64711555 138.37427227 46.96551895 138.41728783 C32.38206822 139.32247751 17.81423234 139.52725406 3.20605469 139.50097656 C0.41487581 139.49632922 -2.37586875 139.50336231 -5.16699219 139.52148438 C-29.80531435 139.67955493 -54.03122385 138.08155618 -78.35009766 133.81030273 C-79.59380127 133.59535156 -80.83750488 133.38040039 -82.11889648 133.15893555 C-116.69053323 127.04401174 -159.33579852 117.70264424 -182.85009766 89.18530273 C-187.85653103 81.7619705 -191.00329607 74.23572063 -189.85009766 65.18530273 C-185.93535156 50.27644934 -174.20458826 40.74908353 -161.47509766 33.21264648 C-124.67193982 12.41129456 -80.53476823 4.49530071 -38.85009766 1.18530273 C-37.79902832 1.09772705 -36.74795898 1.01015137 -35.66503906 0.91992188 C-23.78289676 0.04602859 -11.91023329 -0.00082653 0 0 Z M-66.85009766 24.18530273 C-67.8584668 24.34015137 -68.86683594 24.495 -69.90576172 24.65454102 C-95.6493487 28.62557946 -129.1917533 35.03281274 -146.50634766 56.34936523 C-149.32393261 60.19897259 -149.8779436 62.30815543 -149.72509766 67.12280273 C-148.37017243 75.50443323 -141.74361303 80.90987137 -135.22509766 85.68530273 C-124.09771657 93.2174335 -111.67741664 96.66741109 -98.85009766 100.18530273 C-98.02751465 100.4125 -97.20493164 100.63969727 -96.35742188 100.8737793 C-85.52651774 103.80665424 -74.64770635 105.81439455 -63.53759766 107.37280273 C-61.88739624 107.60507568 -61.88739624 107.60507568 -60.20385742 107.84204102 C-38.96301782 110.64165831 -17.82519368 111.56185083 3.58740234 111.49780273 C4.85715912 111.49597992 6.12691589 111.4941571 7.43515015 111.49227905 C43.48468922 111.40535265 79.45559916 108.68397965 114.14990234 98.18530273 C114.91866699 97.9572998 115.68743164 97.72929688 116.47949219 97.49438477 C131.19632268 93.07599984 148.77418376 87.40057087 156.71240234 73.12280273 C158.31207879 69.34845093 158.74770398 66.29518897 158.14990234 62.18530273 C152.4841568 49.20130252 140.25754998 43.00498206 127.80615234 37.78295898 C124.28503399 36.47092322 120.7407423 35.28782076 117.14990234 34.18530273 C116.35245605 33.94038086 115.55500977 33.69545898 114.73339844 33.44311523 C85.32891203 24.52965622 54.66019355 20.10797842 23.93115234 19.94702148 C23.21977552 19.9421982 22.5083987 19.93737492 21.77546501 19.93240547 C16.40028388 19.89643164 11.02519184 19.88050923 5.64990234 19.87280273 C4.46939238 19.87063499 4.46939238 19.87063499 3.26503372 19.86842346 C-20.33130456 19.83335091 -43.52102333 20.27634979 -66.85009766 24.18530273 Z " fill="#FDFEFD" transform="translate(251.85009765625,-0.185302734375)"/>
<path d="M0 0 C0 0.66 0 1.32 0 2 C-24.39201982 10.76248355 -50.26368137 14.70530983 -76 17 C-77.42421265 17.14139404 -77.42421265 17.14139404 -78.87719727 17.28564453 C-91.81955651 18.41405112 -104.83180921 18.24300687 -117.8125 18.25 C-119.10557068 18.25100708 -120.39864136 18.25201416 -121.730896 18.25305176 C-141.66128031 18.24255575 -161.24082252 17.7139181 -181 15 C-182.61406738 14.7831958 -182.61406738 14.7831958 -184.26074219 14.56201172 C-202.28080705 12.05475154 -221.06181731 8.79543758 -238 2 C-238 1.34 -238 0.68 -238 0 C-229.80909746 -3.21785457 -221.56955237 -5.52434778 -213 -7.5 C-212.35204468 -7.64996429 -211.70408936 -7.79992859 -211.03649902 -7.95443726 C-197.46184504 -11.07541597 -183.8367594 -13.36951998 -170 -15 C-168.56793213 -15.17571533 -168.56793213 -15.17571533 -167.10693359 -15.35498047 C-112.58016965 -21.72258625 -51.90856015 -18.54617219 0 0 Z " fill="#7FBA00" transform="translate(375,93)"/>
</svg>
